<svg width="48" height="48" viewBox="0 0 48 48" fill="none" xmlns="http://www.w3.org/2000/svg">
<path d="M48 22.1579C48 32.7408 37.2569 41.3158 24.0014 41.3158C20.5235 41.3158 17.2237 40.7263 14.2426 39.6671C13.127 40.4684 11.3084 41.5645 9.15225 42.4855C6.90238 43.4434 4.19316 44.2632 1.50269 44.2632C0.893353 44.2632 0.349635 43.9039 0.115273 43.3513C-0.119088 42.7987 0.0121544 42.1724 0.434005 41.7487L0.462128 41.7211C0.490252 41.6934 0.52775 41.6566 0.583996 41.5921C0.687115 41.4816 0.846481 41.3066 1.04334 41.0671C1.4277 40.6066 1.94329 39.925 2.46826 39.0776C3.40571 37.5487 4.29628 35.5408 4.4744 33.2842C1.66206 30.1526 0.00278 26.3118 0.00278 22.1579C0.00278 11.575 10.7459 3 24.0014 3C37.2569 3 48 11.575 48 22.1579Z" fill="#EC2790"/>
</svg>
