<svg width="48" height="48" viewBox="0 0 48 48" fill="none" xmlns="http://www.w3.org/2000/svg">
<path d="M8.1757 0.254345C7.63521 1.4148 7.51334 1.68505 7.47095 1.77513C7.36497 2.03477 7.12122 2.59645 7.02584 2.81901C6.98345 2.91439 6.84038 3.28001 6.70261 3.62973C6.56484 3.97946 6.43237 4.31859 6.40587 4.38218C6.284 4.67891 6.2575 4.7584 6.15682 5.03394C6.09854 5.19291 6.01905 5.42076 5.98196 5.53733C5.94487 5.65391 5.89188 5.77048 5.87068 5.80228C5.84949 5.82877 5.82829 5.89766 5.82829 5.96124C5.82829 6.02483 5.8071 6.09372 5.7859 6.12021C5.75941 6.152 5.63753 6.49643 5.51566 6.88855C5.38849 7.28066 5.26661 7.65158 5.24542 7.70987C5.22422 7.76816 5.17653 7.92183 5.13944 8.0543C5.01226 8.51001 4.96457 8.66367 4.92218 8.76965C4.90099 8.82794 4.8427 9.0293 4.79501 9.22005C4.74732 9.41082 4.68373 9.64927 4.65724 9.74994C4.62545 9.85062 4.58306 10.0202 4.55656 10.1209C4.50887 10.3222 4.3658 10.8892 4.29162 11.1806C4.24923 11.3555 4.22273 11.4668 4.09026 12.0815C4.05847 12.2139 4.00548 12.463 3.97368 12.6378C3.94189 12.8127 3.8889 13.0511 3.86771 13.1677C3.84121 13.2843 3.79352 13.5439 3.76173 13.7506C3.72993 13.952 3.68225 14.2381 3.65575 14.3865C3.62926 14.5295 3.58157 14.8316 3.55507 15.0488C3.52328 15.2661 3.48619 15.5416 3.46499 15.6582C3.4279 15.9019 3.37491 16.4689 3.27423 17.6453C3.11526 19.5847 3.21594 22.6156 3.49678 24.2689C3.63456 25.0584 3.64515 25.122 3.82002 25.8585C3.9048 26.2189 3.9048 26.5103 3.82002 26.7859C3.50738 27.8244 3.4173 28.2748 3.23184 29.6896C3.16295 30.2248 3.16295 31.7774 3.23184 32.3073C3.26363 32.5351 3.31132 32.922 3.34312 33.171C3.37491 33.4201 3.4226 33.6903 3.4438 33.7804C3.46499 33.8652 3.51268 34.0824 3.54977 34.2573C3.58157 34.4321 3.63456 34.6176 3.66105 34.6653C3.68754 34.7183 3.70874 34.7978 3.70874 34.8508C3.70874 34.9514 3.80412 35.2694 3.873 35.4071C3.8995 35.4601 3.92069 35.5396 3.92069 35.582C3.92069 35.6244 3.94189 35.7039 3.96838 35.7569C3.99488 35.8046 4.10616 36.0695 4.21213 36.3397C4.51947 37.1399 5.02816 38.152 5.49976 38.8938C5.7912 39.3548 6.51185 40.3775 6.62313 40.4835C6.63902 40.4994 6.78209 40.6636 6.94106 40.8544C7.32258 41.3101 8.52542 42.5129 8.95463 42.8733C9.14539 43.0322 9.30966 43.17 9.32556 43.1859C9.34145 43.2018 9.45803 43.2972 9.5905 43.3979C9.72297 43.4985 9.85544 43.5992 9.88194 43.6257C10.0409 43.7529 10.6609 44.1874 10.8887 44.3305C11.0371 44.4205 11.3497 44.6113 11.5829 44.7597C12.5844 45.3796 13.8614 46.0155 14.9159 46.4129C15.0907 46.4818 15.2868 46.556 15.3557 46.5825C15.4193 46.609 15.5253 46.6514 15.5941 46.6779C15.7372 46.7309 16.6327 47.0117 16.9559 47.1071C17.0884 47.1442 17.2527 47.1919 17.3269 47.2131C17.4011 47.2395 17.5918 47.2872 17.7508 47.3243C17.9097 47.3561 18.1005 47.4038 18.1747 47.425C18.2489 47.4462 18.4502 47.4939 18.6251 47.5257C18.8 47.5628 19.049 47.6105 19.1815 47.637C19.314 47.6582 19.6107 47.7111 19.8438 47.7429C20.077 47.7747 20.4108 47.8224 20.5857 47.8489C21.4547 47.9814 22.5304 48.0185 24.4804 47.992C25.6037 47.9761 26.7377 47.939 26.9973 47.9072C28.3485 47.7588 29.7792 47.4886 30.892 47.1654C31.3795 47.0276 31.512 46.9905 31.6498 46.964C31.7292 46.9481 31.8087 46.9163 31.8246 46.8898C31.8405 46.8633 31.8988 46.8421 31.9571 46.8421C32.0101 46.8421 32.1002 46.8209 32.1531 46.7944C32.2008 46.7679 32.3863 46.6938 32.5612 46.6302C32.736 46.5666 32.9215 46.4924 32.9692 46.4659C33.0222 46.4394 33.0858 46.4182 33.1175 46.4182C33.1493 46.4182 33.2871 46.3705 33.4249 46.3069C33.5627 46.2434 33.7216 46.1745 33.7799 46.1533C33.8382 46.1321 34.278 45.9201 34.7602 45.687C36.3022 44.9345 37.8071 43.9648 38.9675 42.9739C39.7729 42.2851 40.6632 41.3843 41.2248 40.6954C41.3573 40.5365 41.4739 40.3934 41.4898 40.3775C41.6593 40.2079 42.5972 38.8249 42.8675 38.3374C43.2596 37.6327 43.5457 37.0339 43.763 36.4828C43.8902 36.1596 44.012 35.8522 44.0332 35.794C44.1922 35.4018 44.4254 34.554 44.5578 33.897C44.7751 32.8107 44.7804 32.7577 44.8122 31.2369C44.8493 29.536 44.7645 28.8206 44.3406 27.2098C44.3088 27.0932 44.2399 26.86 44.1816 26.6905C44.1233 26.5209 44.0915 26.3407 44.1127 26.2931C44.1286 26.2454 44.171 26.097 44.1975 25.9645C44.2293 25.8321 44.2717 25.6307 44.3035 25.5141C44.4519 24.8783 44.6214 23.7761 44.7327 22.6527C44.8228 21.736 44.8228 18.2917 44.7327 17.3009C44.6373 16.2464 44.5154 15.2502 44.4095 14.5984C44.383 14.4236 44.3459 14.1745 44.3247 14.042C44.3088 13.9096 44.2717 13.7082 44.2452 13.5916C44.2187 13.4751 44.171 13.226 44.1392 13.0353C44.1074 12.8445 44.0597 12.606 44.0332 12.5054C44.012 12.4047 43.9644 12.1874 43.9273 12.0285C43.8531 11.6522 43.7736 11.3078 43.7153 11.0747C43.5299 10.3487 43.4875 10.1792 43.4663 10.0255C43.4504 9.93011 43.4186 9.84002 43.3921 9.82413C43.3656 9.80823 43.3444 9.73935 43.3444 9.67046C43.3444 9.60157 43.3232 9.4903 43.2967 9.42141C43.2702 9.35253 43.2225 9.19356 43.1854 9.06109C43.1483 8.92862 43.1006 8.76435 43.0794 8.69017C43.0583 8.61598 42.9841 8.37753 42.9205 8.16028C42.7085 7.43963 42.6979 7.39194 42.6502 7.30186C42.6237 7.24887 42.6025 7.15879 42.6025 7.1058C42.6025 7.04751 42.5813 6.98392 42.5496 6.96803C42.5231 6.95213 42.4966 6.87795 42.4966 6.80906C42.4966 6.74018 42.4754 6.66599 42.4436 6.6501C42.4171 6.6342 42.3906 6.56532 42.3906 6.49643C42.3906 6.43284 42.3747 6.35866 42.3535 6.34276C42.327 6.31097 42.1521 5.83407 41.9349 5.19291C41.8607 4.96505 41.8342 4.89617 41.7123 4.61003C41.6858 4.53584 41.5799 4.2762 41.4898 4.02715C41.3944 3.7781 41.2884 3.50256 41.2513 3.41778C41.2089 3.3277 41.1295 3.12634 41.0659 2.96738C41.0023 2.80841 40.9175 2.59645 40.8751 2.50107C40.8327 2.41099 40.7691 2.25203 40.7267 2.15665C40.5095 1.65325 40.2392 1.06507 39.8895 0.328529C39.7994 0.148369 39.7094 0 39.6829 0C39.5716 0 36.9539 2.58055 36.3234 3.3118C36.1485 3.51316 35.9524 3.73042 35.8942 3.7993C35.8306 3.86289 35.5656 4.17022 35.3113 4.48816C35.0516 4.80079 34.8291 5.07103 34.8132 5.08693C34.7655 5.12932 33.7057 6.56002 33.4779 6.89384C33.2076 7.28066 32.6459 8.14968 32.5241 8.35634C32.328 8.70606 32.2273 8.88093 32.0737 9.14057C31.8988 9.44261 31.051 11.1436 31.051 11.1965C31.051 11.2177 31.0033 11.3502 30.9397 11.488C30.7966 11.8059 30.7701 11.8801 30.6271 12.2669C30.5635 12.4418 30.4893 12.6272 30.4628 12.6749C30.4363 12.7279 30.4151 12.818 30.4151 12.871C30.4151 12.9293 30.3939 12.9876 30.3674 13.0035C30.3409 13.0194 30.3091 13.0988 30.2932 13.1783C30.2773 13.2631 30.2402 13.4115 30.2138 13.5121C30.182 13.6128 30.1078 13.8884 30.0495 14.1162C29.9912 14.3441 29.9223 14.556 29.9011 14.5772C29.8746 14.6037 29.7845 14.6037 29.6998 14.5719C29.6097 14.5454 29.4083 14.4977 29.2494 14.4712C29.0904 14.4395 28.8413 14.3918 28.693 14.3653C26.5098 13.952 23.2298 13.8619 20.8771 14.1533C19.9074 14.2699 19.5683 14.3176 19.3669 14.36C19.2504 14.3865 19.0013 14.4342 18.8106 14.466C18.6198 14.503 18.3972 14.556 18.3178 14.5878C18.127 14.6567 18.1058 14.6249 17.9839 14.1003C17.9362 13.8778 17.8727 13.6764 17.8462 13.6446C17.825 13.6181 17.8038 13.5545 17.8038 13.5069C17.8038 13.4274 17.5335 12.5531 17.4381 12.3199C17.4117 12.2616 17.3693 12.1556 17.3375 12.0815C17.311 12.0073 17.2421 11.843 17.1944 11.7105C17.0672 11.3661 16.993 11.2018 16.5002 10.2003C16.0657 9.31543 16.0021 9.19356 15.5623 8.45172C15.3398 8.0755 14.0999 6.19439 14.0416 6.1467C14.0257 6.13081 13.7925 5.83407 13.5276 5.48434C13.2626 5.13462 12.9977 4.80079 12.9447 4.7425C12.8917 4.68421 12.7433 4.50405 12.6109 4.34509C12.4784 4.18612 12.3618 4.04305 12.3459 4.02715C12.33 4.01125 12.1658 3.8205 11.975 3.60324C10.9841 2.46398 8.50423 0 8.35056 0C8.31877 0 8.23928 0.116577 8.1757 0.254345Z" fill="#EC2790"/>
</svg>
